<?xml version="1.0" encoding="UTF-8"?>
<svg id="Ebene_2" data-name="Ebene 2" xmlns="http://www.w3.org/2000/svg" viewBox="0 0 709.33 151.33">
  <defs>
    <style>
      .cls-1 {
        fill: #ffdd06;
      }

      .cls-2 {
        fill: #191925;
      }

      .cls-3 {
        fill: #1d1d1b;
        font-family: Arial-BoldMT, Arial;
        font-size: 50px;
        font-weight: 700;
      }

      .cls-4 {
        fill: #101022;
      }
    </style>
  </defs>
  <g id="buttons">
    <g id="bmac">
      <rect class="cls-1" width="709.33" height="151.33" rx="20.78" ry="20.78"/>
      <g>
        <path class="cls-4" d="M103.77,72.19c-3.09,1.34-6.61,2.95-11.18,2.95s-3.87-.28-5.62-.84l3.16,33.67c.14,1.41.77,2.74,1.76,3.66.98.98,2.32,1.48,3.66,1.48,0,0,4.43.21,5.97.21s6.4-.21,6.4-.21c1.34,0,2.6-.49,3.66-1.48.98-.98,1.69-2.25,1.76-3.66l3.37-37.26c-1.48-.49-3.02-.91-4.71-.91-2.95,0-5.34,1.05-8.15,2.25h0l-.07.14Z"/>
        <path class="cls-2" d="M131.19,54.76l-.42-2.46c-.42-2.25-1.41-4.36-3.58-5.2-.7-.21-1.48-.35-2.04-.91s-.7-1.34-.84-2.11c-.21-1.41-.42-2.88-.7-4.22-.21-1.19-.35-2.53-.91-3.66-.7-1.48-2.18-2.32-3.58-2.95-.77-.28-1.48-.49-2.25-.77-3.58-.98-7.38-1.34-11.04-1.55-4.43-.21-8.86-.14-13.29.21-3.3.28-6.75.7-9.91,1.9-1.12.42-2.32.98-3.16,1.9-1.05,1.12-1.41,2.88-.63,4.29.49.98,1.48,1.76,2.46,2.18,1.27.63,2.6,1.05,4.08,1.34,3.87.91,7.87,1.19,11.81,1.34,4.36.14,8.79,0,13.07-.42,1.05-.14,2.18-.28,3.23-.42,1.27-.21,2.11-1.97,1.76-3.09-.42-1.41-1.69-1.97-3.02-1.83-.21,0-.35,0-.63.07h-.14c-.42.07-.91.14-1.34.14-.98.07-1.9.21-2.88.28-2.11.14-4.29.21-6.4.21s-4.22,0-6.33-.21c-.98,0-1.9-.14-2.88-.21-.42,0-.91-.07-1.27-.14h-.98c-.91-.21-1.76-.35-2.6-.49-.07,0-.14,0-.21-.14s-.07-.14-.07-.21,0-.14.07-.21c0-.07.14-.14.21-.14h0c.77-.14,1.48-.28,2.25-.42.21,0,.49-.07.77-.14h0c.42,0,.98-.14,1.41-.14,4.08-.42,8.22-.63,12.37-.42,2.04,0,4.01.14,5.97.35.42,0,.84.07,1.27.14h.84c.98.21,1.97.35,2.88.63,1.41.28,3.23.42,3.87,2.04.21.49.28,1.05.35,1.55l.14.7h0c.28,1.55.7,3.23.98,4.78v.35c0,.14,0,.21-.14.28,0,.07-.14.14-.21.21s-.21.07-.28.14h-.42c-.63.07-1.27.14-1.9.21-1.27.14-2.46.28-3.8.35-2.46.21-5.06.35-7.52.42h-3.87c-5.13,0-10.12-.28-15.25-.91-.49,0-1.12-.14-1.69-.21.42,0-.28,0-.42,0-.35,0-.7-.07-1.05-.14-1.19-.14-2.32-.35-3.51-.63-1.41-.21-2.81-.14-4.08.63-1.05.63-1.9,1.48-2.39,2.6-.49,1.19-.7,2.46-.98,3.8s-.63,2.6-.42,3.94c.28,2.81,2.18,5.13,4.99,5.62,2.53.42,5.13.91,7.73,1.19,10.12,1.27,20.39,1.41,30.65.42.84-.07,1.69-.14,2.46-.28.21,0,.49,0,.77.07s.42.21.7.42.28.42.42.7.14.49.07.84l-.21,2.6c-.49,5.27-1.05,10.54-1.55,15.82-.49,5.55-1.05,11.04-1.69,16.52-.14,1.55-.28,3.09-.42,4.64-.14,1.48-.14,3.09-.42,4.57-.42,2.39-2.04,3.87-4.29,4.36-2.11.42-4.22.77-6.33.77s-4.71-.07-7.1-.07-5.55-.21-7.52-2.18c-1.76-1.76-1.97-4.36-2.18-6.68-.28-3.09-.63-6.12-.91-9.21l-1.76-17.01-1.12-10.97v-.49c-.14-1.34-1.05-2.6-2.39-2.53-1.19,0-2.53,1.12-2.39,2.53l.84,8.22,1.69,16.94c.42,4.78.98,9.63,1.41,14.34.07.91.14,1.9.28,2.81.49,5.06,4.22,7.73,8.79,8.51,2.74.42,5.41.49,8.15.63,3.44,0,7.03.21,10.4-.42,5.06-.98,8.86-4.5,9.42-9.91.14-1.55.28-3.16.42-4.71.49-5.2,1.05-10.47,1.55-15.68l1.69-17.01.77-7.8c0-.35.21-.77.42-1.05s.63-.42.98-.49c1.41-.28,2.88-.84,3.87-1.97,1.69-1.83,1.97-4.22,1.34-6.61h0l-.28-.07ZM76.71,56.52v.28-.28ZM76.92,57.64h.07c0,.07-.07,0-.07,0ZM125.84,57.71c-.49.49-1.27.77-2.11.91-8.72,1.34-17.5,2.04-26.29,1.76-6.26-.21-12.51-.98-18.7-1.9-.63-.07-1.27-.21-1.69-.7-.84-.91-.35-2.6-.21-3.8.14-.98.49-2.25,1.69-2.39,1.76-.21,3.8.49,5.48.84,2.11.28,4.15.63,6.26.77,8.93.84,18,.77,26.85-.49,1.69-.21,3.23-.42,4.78-.77,1.41-.28,3.02-.77,3.94.77.63,1.05.7,2.46.63,3.58,0,.49-.21.98-.63,1.34h0v.07Z"/>
      </g>
      <text class="cls-3" transform="translate(192.13 91.6)"><tspan x="0" y="0">Buy me a coffee</tspan></text>
    </g>
  </g>
</svg>
