<?xml version="1.0" encoding="UTF-8"?>
<svg id="Ebene_2" data-name="Ebene 2" xmlns="http://www.w3.org/2000/svg" viewBox="0 0 709.33 151.33">
  <defs>
    <style>
      .cls-1 {
        font-family: Arial-BoldMT, Arial;
        font-size: 50px;
        font-weight: 700;
      }

      .cls-1, .cls-2 {
        fill: #fff;
      }

      .cls-3 {
        letter-spacing: -.02em;
      }

      .cls-4 {
        fill: #1d2228;
      }
    </style>
  </defs>
  <g id="buttons">
    <g id="github">
      <rect class="cls-4" width="709.33" height="151.33" rx="20.78" ry="20.78"/>
      <text class="cls-1" transform="translate(192.13 95.94)"><tspan class="cls-3" x="0" y="0">V</tspan><tspan x="32.45" y="0">iew on GitHub</tspan></text>
      <path class="cls-2" d="M100.72,30.3c-25.63-.37-46.71,20.11-47.08,45.74-.3,20.51,12.9,38.78,32.47,44.94,2.15.43,3.87-1.93,3.87-3.87v-6.23c-12.89,2.79-16.98-6.23-16.98-6.23-.84-2.72-2.49-5.12-4.73-6.88-4.3-3.01.21-2.79.21-2.79,2.91.23,5.54,1.83,7.09,4.3,3.65,6.23,11.82,5.59,14.4,4.51-.23-2.14.15-4.29,1.07-6.23-14.61-2.58-22.56-11.17-22.56-22.78-.15-6.05,2.09-11.92,6.23-16.33-2.35-4.35-2.11-9.64.64-13.75,5.24.1,10.22,2.36,13.75,6.23,3.73-1.27,7.66-1.86,11.6-1.72,3.92-.12,7.84.39,11.6,1.5,3.59-3.78,8.55-5.94,13.75-6.02,2.69,4.11,3.01,9.34.86,13.75,4.07,4.45,6.23,10.31,6.02,16.33,0,11.6-7.95,20.2-22.56,22.78.93,1.94,1.3,4.1,1.07,6.23v13.32c0,2.14,1.73,3.87,3.86,3.87.07,0,.15,0,.22,0,24.33-8.44,37.21-35.01,28.77-59.34-6.46-18.61-23.9-31.15-43.6-31.34Z"/>
    </g>
  </g>
</svg>
