<?xml version="1.0" encoding="utf-8"?>
<svg xmlns="http://www.w3.org/2000/svg" width="512" height="512" viewBox="0 0 44 32" fill="none">
<path d="M22.2539 5.08522V0.898438" stroke="black" stroke-width="1.25604" stroke-linecap="round"/>
<path d="M25.4222 6.02039L27.5156 2.39453" stroke="black" stroke-width="1.25604" stroke-linecap="round"/>
<path d="M19.0895 6.02039L16.9961 2.39453" stroke="black" stroke-width="1.25604" stroke-linecap="round"/>
<path d="M29.6969 27.8808C28.6835 27.0559 27.3983 25.2178 26.8598 23.4095C26.1866 21.1491 24.731 18.9218 24.4075 18.3601C24.1204 17.8617 25.0325 16.0531 26.8598 17.4956C28.3216 18.6496 29.3603 20.6367 29.6969 21.486C29.8332 21.8299 31.0539 23.8868 30.6986 17.0613C30.5863 14.9029 30.2954 13.3557 30.1587 10.2286C30.0515 7.77505 30.6977 6.94828 31.6882 6.94828C32.6787 6.94828 33.4955 7.27003 33.4955 9.77323C33.4955 6.89135 34.1129 6.24199 35.467 6.24219C36.5956 6.24236 37.1019 7.20472 37.1019 8.16558V9.79737C37.1019 8.16558 38.187 8.01317 38.7449 8.01317C39.3028 8.01317 40.4198 8.49733 40.4198 9.79737V13.0556C40.4198 11.4878 41.3989 11.0311 42.1372 11.0805C43.0989 11.1449 43.5336 11.826 43.401 13.3557C43.3064 14.4477 43.0163 17.6407 43.0163 18.6964C43.0163 19.6435 43.401 21.6056 43.0163 23.4095C42.7944 24.4503 42.247 27.2074 39.4581 28.4576C36.6691 29.7078 31.7646 29.564 29.6969 27.8808Z" fill="#FFFF8B"/>
<path d="M33.4955 9.77323C33.4955 7.27003 32.6787 6.94828 31.6882 6.94828C30.6977 6.94828 30.0515 7.77505 30.1587 10.2286C30.2954 13.3557 30.5863 14.9029 30.6986 17.0613C31.0539 23.8868 29.8332 21.8299 29.6969 21.486C29.3603 20.6367 28.3216 18.6496 26.8598 17.4956C25.0325 16.0531 24.1204 17.8617 24.4075 18.3601C24.731 18.9218 26.1866 21.1491 26.8598 23.4095C27.3983 25.2178 28.6835 27.0559 29.6969 27.8808C31.7646 29.564 36.6691 29.7078 39.4581 28.4576C42.247 27.2074 42.7944 24.4503 43.0163 23.4095C43.401 21.6056 43.0163 19.6435 43.0163 18.6964C43.0163 17.6407 43.3064 14.4477 43.401 13.3557C43.5336 11.826 43.0989 11.1449 42.1372 11.0805C41.3989 11.0311 40.4198 11.4878 40.4198 13.0556M33.4955 9.77323C33.4955 10.5457 33.752 14.6731 33.8321 17.0613M33.4955 9.77323L33.8321 17.0613M33.4955 9.77323C33.4955 6.89135 34.1129 6.24199 35.467 6.24219C36.5956 6.24236 37.1019 7.20472 37.1019 8.16558V9.79737M33.8321 17.0613L37.1019 17.4956M37.1019 17.4956V9.79737M37.1019 17.4956L40.1312 17.9751L40.4198 13.0556M37.1019 9.79737C37.1019 8.16558 38.187 8.01317 38.7449 8.01317C39.3028 8.01317 40.4198 8.49733 40.4198 9.79737V13.0556" stroke="black" stroke-width="1.25604"/>
<path d="M14.85 27.8808C15.8634 27.0559 17.1486 25.2178 17.6871 23.4095C18.3602 21.1491 19.8159 18.9218 20.1394 18.3601C20.4264 17.8617 19.5143 16.0531 17.6871 17.4956C16.2253 18.6496 15.1866 20.6367 14.85 21.486C14.7137 21.8299 13.493 23.8868 13.8482 17.0613C13.9606 14.9029 14.2515 13.3557 14.3882 10.2286C14.4954 7.77505 13.8492 6.94828 12.8587 6.94828C11.8682 6.94828 11.0513 7.27003 11.0513 9.77323C11.0513 6.89135 10.4339 6.24199 9.07986 6.24219C7.95124 6.24236 7.44498 7.20472 7.44498 8.16558V9.79737C7.44498 8.16558 6.35989 8.01317 5.80198 8.01317C5.24408 8.01317 4.12712 8.49733 4.12712 9.79737V13.0556C4.12712 11.4878 3.14796 11.0311 2.40967 11.0805C1.44798 11.1449 1.01328 11.826 1.14586 13.3557C1.2405 14.4477 1.53054 17.6407 1.53054 18.6964C1.53054 19.6435 1.14586 21.6056 1.53054 23.4095C1.75251 24.4503 2.2999 27.2074 5.08882 28.4576C7.87774 29.7078 12.7822 29.564 14.85 27.8808Z" fill="#FFFF8B"/>
<path d="M11.0513 9.77323C11.0513 7.27003 11.8682 6.94828 12.8587 6.94828C13.8492 6.94828 14.4954 7.77505 14.3882 10.2286C14.2515 13.3557 13.9606 14.9029 13.8482 17.0613C13.493 23.8868 14.7137 21.8299 14.85 21.486C15.1866 20.6367 16.2253 18.6496 17.6871 17.4956C19.5143 16.0531 20.4264 17.8617 20.1394 18.3601C19.8159 18.9218 18.3602 21.1491 17.6871 23.4095C17.1486 25.2178 15.8634 27.0559 14.85 27.8808C12.7822 29.564 7.87774 29.7078 5.08882 28.4576C2.2999 27.2074 1.75251 24.4503 1.53054 23.4095C1.14586 21.6056 1.53054 19.6435 1.53054 18.6964C1.53054 17.6407 1.2405 14.4477 1.14586 13.3557C1.01328 11.826 1.44798 11.1449 2.40967 11.0805C3.14796 11.0311 4.12712 11.4878 4.12712 13.0556M11.0513 9.77323C11.0513 10.5457 10.7949 14.6731 10.7147 17.0613M11.0513 9.77323L10.7147 17.0613M11.0513 9.77323C11.0513 6.89135 10.4339 6.24199 9.07986 6.24219C7.95124 6.24236 7.44498 7.20472 7.44498 8.16558V9.79737M10.7147 17.0613L7.44498 17.4956M7.44498 17.4956V9.79737M7.44498 17.4956L4.41563 17.9751L4.12712 13.0556M7.44498 9.79737C7.44498 8.16558 6.35989 8.01317 5.80198 8.01317C5.24408 8.01317 4.12712 8.49733 4.12712 9.79737V13.0556" stroke="black" stroke-width="1.25604"/>
</svg>
