<svg xmlns="http://www.w3.org/2000/svg" viewBox="0 0 1600 500" width="1600" height="500" role="img" aria-label="Unraid — Community Applications Docker Template">
  <rect width="1600" height="500" fill="#ffffff"/>

  <!-- Unraid mark (official gradient) -->
  <svg x="479" y="125" width="260" height="150" viewBox="0 0 133.52 76.97">
    <defs>
      <linearGradient id="unraidMark" x1="23.76" y1="81.49" x2="109.76" y2="-4.51" gradientUnits="userSpaceOnUse">
        <stop offset="0" stop-color="#e32929"/>
        <stop offset="1" stop-color="#ff8d30"/>
      </linearGradient>
    </defs>
    <path d="M63.49,19.24H70V57.73H63.49ZM6.54,57.73H0V19.24H6.54Zm25.2,4.54h6.55V77H31.74ZM15.87,45.84h6.54V69.62H15.87Zm31.75,0h6.54V69.62H47.62ZM127,19.24h6.54V57.73H127ZM101.77,14.7H95.23V0h6.54Zm15.88,16.44H111.1V7.35h6.55Zm-31.75,0H79.36V7.35H85.9Z" fill="url(#unraidMark)"/>
  </svg>

  <!-- Unraid wordmark (official logotype, outlined) -->
  <svg x="779" y="170" width="342" height="60" viewBox="0 0 222.36 39.04">
    <path d="M146.7,29.47H135l-3,9h-6.49L138.93,0h8l13.41,38.49h-7.09L142.62,6.93l-5.83,16.88h8Z" fill="#1a1a1a"/>
    <path d="M29.69,0V25.4c0,8.91-5.77,13.64-14.9,13.64S0,34.31,0,25.4V0H6.54V25.4c0,5.17,3.19,7.92,8.25,7.92s8.36-2.75,8.36-7.92V0Z" fill="#1a1a1a"/>
    <path d="M50.86,12v26.5H44.31V0h6.11l17,26.5V0H74V38.49H67.9Z" fill="#1a1a1a"/>
    <path d="M171.29,0h6.54V38.49h-6.54Z" fill="#1a1a1a"/>
    <path d="M222.36,24.69c0,9-5.88,13.8-15.17,13.8H192.67V0H207.3c9.18,0,15.06,4.78,15.06,13.8ZM215.82,13.8c0-5.28-3.3-8.14-8.52-8.14h-8.08V32.77h8c5.33,0,8.63-2.8,8.63-8.08Z" fill="#1a1a1a"/>
    <path d="M108.31,23.92c4.34-1.6,6.93-5.28,6.93-11.55C115.24,3.68,110.18,0,102.48,0H88.84V38.49h6.55V5.66h6.87c3.8,0,6.21,1.82,6.21,6.71s-2.41,6.76-6.21,6.76H98.88l9.21,19.36h7.53Z" fill="#1a1a1a"/>
  </svg>

  <!-- claim -->
  <text x="800" y="362" text-anchor="middle" font-family="Helvetica, Arial, sans-serif" font-size="44" font-weight="600" letter-spacing="2" fill="#525252">Community Applications Docker Template</text>
</svg>
