<?xml version="1.0" encoding="UTF-8"?>
<svg xmlns="http://www.w3.org/2000/svg" viewBox="0 0 1200 360" width="1200" height="360"
     role="img" aria-label="Standard Notes">
  <rect x="0" y="0" width="1200" height="360" fill="#ffffff"/>
  <rect x="0.5" y="0.5" width="1199" height="359" fill="none" stroke="#e5e7eb" stroke-width="1"/>
  <g transform="translate(167.058 90.004) scale(0.9574)" fill="#1C6EE0">
    <path d="M152 0C171.882 0 188 16.1178 188 36V150C188 169.572 172.382 185.496 152.929 185.988L152 186H36L35.0713 185.988C15.6183 185.496 0 169.572 0 150V36C0 16.1178 16.1178 0 36 0H152ZM36 17C25.5066 17 17 25.5066 17 36V150C17 160.493 25.5066 169 36 169H152C162.493 169 171 160.493 171 150V36C171 25.5066 162.493 17 152 17H36ZM94 52.5C114.282 52.5 130.457 68.2213 130.986 88H131V132H114V89C114 78.3182 105.41 69.5 94 69.5C82.5899 69.5 74 78.3182 74 89V132H57V89C57 68.7538 73.3776 52.5 94 52.5Z"/>
  </g>
  <g transform="translate(379.049 211.647) scale(0.044922 -0.044922)" fill="#1C6EE0">
    <path transform="translate(0.000 0)" d="M1286 406Q1286 199 1132.5 89.5Q979 -20 682 -20Q411 -20 257.0 76.0Q103 172 59 367L344 414Q373 302 457.0 251.5Q541 201 690 201Q999 201 999 389Q999 449 963.5 488.0Q928 527 863.5 553.0Q799 579 616 616Q458 653 396.0 675.5Q334 698 284.0 728.5Q234 759 199.0 802.0Q164 845 144.5 903.0Q125 961 125 1036Q125 1227 268.5 1328.5Q412 1430 686 1430Q948 1430 1079.5 1348.0Q1211 1266 1249 1077L963 1038Q941 1129 873.5 1175.0Q806 1221 680 1221Q412 1221 412 1053Q412 998 440.5 963.0Q469 928 525.0 903.5Q581 879 752 842Q955 799 1042.5 762.5Q1130 726 1181.0 677.5Q1232 629 1259.0 561.5Q1286 494 1286 406Z"/><path transform="translate(1321.478 0)" d="M420 -18Q296 -18 229.0 49.5Q162 117 162 254V892H25V1082H176L264 1336H440V1082H645V892H440V330Q440 251 470.0 213.5Q500 176 563 176Q596 176 657 190V16Q553 -18 420 -18Z"/><path transform="translate(1958.957 0)" d="M393 -20Q236 -20 148.0 65.5Q60 151 60 306Q60 474 169.5 562.0Q279 650 487 652L720 656V711Q720 817 683.0 868.5Q646 920 562 920Q484 920 447.5 884.5Q411 849 402 767L109 781Q136 939 253.5 1020.5Q371 1102 574 1102Q779 1102 890.0 1001.0Q1001 900 1001 714V320Q1001 229 1021.5 194.5Q1042 160 1090 160Q1122 160 1152 166V14Q1127 8 1107.0 3.0Q1087 -2 1067.0 -5.0Q1047 -8 1024.5 -10.0Q1002 -12 972 -12Q866 -12 815.5 40.0Q765 92 755 193H749Q631 -20 393 -20ZM720 501 576 499Q478 495 437.0 477.5Q396 460 374.5 424.0Q353 388 353 328Q353 251 388.5 213.5Q424 176 483 176Q549 176 603.5 212.0Q658 248 689.0 311.5Q720 375 720 446Z"/><path transform="translate(3053.435 0)" d="M844 0V607Q844 892 651 892Q549 892 486.5 804.5Q424 717 424 580V0H143V840Q143 927 140.5 982.5Q138 1038 135 1082H403Q406 1063 411.0 980.5Q416 898 416 867H420Q477 991 563.0 1047.0Q649 1103 768 1103Q940 1103 1032.0 997.0Q1124 891 1124 687V0Z"/><path transform="translate(4259.913 0)" d="M844 0Q840 15 834.5 75.5Q829 136 829 176H825Q734 -20 479 -20Q290 -20 187.0 127.5Q84 275 84 540Q84 809 192.5 955.5Q301 1102 500 1102Q615 1102 698.5 1054.0Q782 1006 827 911H829L827 1089V1484H1108V236Q1108 136 1116 0ZM831 547Q831 722 772.5 816.5Q714 911 600 911Q487 911 432.0 819.5Q377 728 377 540Q377 172 598 172Q709 172 770.0 269.5Q831 367 831 547Z"/><path transform="translate(5466.391 0)" d="M393 -20Q236 -20 148.0 65.5Q60 151 60 306Q60 474 169.5 562.0Q279 650 487 652L720 656V711Q720 817 683.0 868.5Q646 920 562 920Q484 920 447.5 884.5Q411 849 402 767L109 781Q136 939 253.5 1020.5Q371 1102 574 1102Q779 1102 890.0 1001.0Q1001 900 1001 714V320Q1001 229 1021.5 194.5Q1042 160 1090 160Q1122 160 1152 166V14Q1127 8 1107.0 3.0Q1087 -2 1067.0 -5.0Q1047 -8 1024.5 -10.0Q1002 -12 972 -12Q866 -12 815.5 40.0Q765 92 755 193H749Q631 -20 393 -20ZM720 501 576 499Q478 495 437.0 477.5Q396 460 374.5 424.0Q353 388 353 328Q353 251 388.5 213.5Q424 176 483 176Q549 176 603.5 212.0Q658 248 689.0 311.5Q720 375 720 446Z"/><path transform="translate(6560.870 0)" d="M143 0V828Q143 917 140.5 976.5Q138 1036 135 1082H403Q406 1064 411.0 972.5Q416 881 416 851H420Q461 965 493.0 1011.5Q525 1058 569.0 1080.5Q613 1103 679 1103Q733 1103 766 1088V853Q698 868 646 868Q541 868 482.5 783.0Q424 698 424 531V0Z"/><path transform="translate(7313.348 0)" d="M844 0Q840 15 834.5 75.5Q829 136 829 176H825Q734 -20 479 -20Q290 -20 187.0 127.5Q84 275 84 540Q84 809 192.5 955.5Q301 1102 500 1102Q615 1102 698.5 1054.0Q782 1006 827 911H829L827 1089V1484H1108V236Q1108 136 1116 0ZM831 547Q831 722 772.5 816.5Q714 911 600 911Q487 911 432.0 819.5Q377 728 377 540Q377 172 598 172Q709 172 770.0 269.5Q831 367 831 547Z"/><path transform="translate(9044.304 0)" d="M995 0 381 1085Q399 927 399 831V0H137V1409H474L1097 315Q1079 466 1079 590V1409H1341V0Z"/><path transform="translate(10478.783 0)" d="M1171 542Q1171 279 1025.0 129.5Q879 -20 621 -20Q368 -20 224.0 130.0Q80 280 80 542Q80 803 224.0 952.5Q368 1102 627 1102Q892 1102 1031.5 957.5Q1171 813 1171 542ZM877 542Q877 735 814.0 822.0Q751 909 631 909Q375 909 375 542Q375 361 437.5 266.5Q500 172 618 172Q877 172 877 542Z"/><path transform="translate(11685.261 0)" d="M420 -18Q296 -18 229.0 49.5Q162 117 162 254V892H25V1082H176L264 1336H440V1082H645V892H440V330Q440 251 470.0 213.5Q500 176 563 176Q596 176 657 190V16Q553 -18 420 -18Z"/><path transform="translate(12322.739 0)" d="M586 -20Q342 -20 211.0 124.5Q80 269 80 546Q80 814 213.0 958.0Q346 1102 590 1102Q823 1102 946.0 947.5Q1069 793 1069 495V487H375Q375 329 433.5 248.5Q492 168 600 168Q749 168 788 297L1053 274Q938 -20 586 -20ZM586 925Q487 925 433.5 856.0Q380 787 377 663H797Q789 794 734.0 859.5Q679 925 586 925Z"/><path transform="translate(13417.217 0)" d="M1055 316Q1055 159 926.5 69.5Q798 -20 571 -20Q348 -20 229.5 50.5Q111 121 72 270L319 307Q340 230 391.5 198.0Q443 166 571 166Q689 166 743.0 196.0Q797 226 797 290Q797 342 753.5 372.5Q710 403 606 424Q368 471 285.0 511.5Q202 552 158.5 616.5Q115 681 115 775Q115 930 234.5 1016.5Q354 1103 573 1103Q766 1103 883.5 1028.0Q1001 953 1030 811L781 785Q769 851 722.0 883.5Q675 916 573 916Q473 916 423.0 890.5Q373 865 373 805Q373 758 411.5 730.5Q450 703 541 685Q668 659 766.5 631.5Q865 604 924.5 566.0Q984 528 1019.5 468.5Q1055 409 1055 316Z"/>
  </g>
</svg>
